<svg width="32" height="32" viewBox="0 0 32 32" fill="none" xmlns="http://www.w3.org/2000/svg">
<g id="akar-icons:light-bulb">
<path id="Vector" d="M13.3333 29.3332H18.6667M10.6667 19.9998H21.3333M6.66667 11.9998C6.66667 9.52448 7.65 7.15051 9.40034 5.40017C11.1507 3.64983 13.5246 2.6665 16 2.6665C18.4754 2.6665 20.8493 3.64983 22.5997 5.40017C24.35 7.15051 25.3333 9.52448 25.3333 11.9998C25.3342 13.5026 24.9708 14.9832 24.2741 16.3147C23.5775 17.6462 22.5684 18.789 21.3333 19.6452L20.6107 23.0665C20.515 23.6971 20.1964 24.2726 19.7128 24.6884C19.2292 25.1043 18.6125 25.3331 17.9747 25.3332H14.0253C13.3875 25.3331 12.7708 25.1043 12.2872 24.6884C11.8036 24.2726 11.485 23.6971 11.3893 23.0665L10.6667 19.6598C9.43121 18.8007 8.4221 17.6552 7.72554 16.3213C7.02898 14.9874 6.66567 13.5047 6.66667 11.9998Z" stroke="#3A0CA3" stroke-width="2" stroke-linecap="round" stroke-linejoin="round"/>
</g>
</svg>
