<svg width="20" height="20" viewBox="0 0 20 20" fill="none" xmlns="http://www.w3.org/2000/svg">
<g id="Document  Align Left 14">
<path id="Vector" d="M17.2178 6.93844L17.1005 7.67921H17.1005L17.2178 6.93844ZM13.0616 2.78217L12.3208 2.8995V2.8995L13.0616 2.78217ZM3.06107 18.0451L3.50191 17.4383L3.06107 18.0451ZM1.95491 16.9389L2.56168 16.4981L1.95491 16.9389ZM18.0451 16.9389L17.4383 16.4981L18.0451 16.9389ZM16.9389 18.0451L16.4981 17.4383L16.9389 18.0451ZM16.9389 1.95491L17.3798 1.34815L16.9389 1.95491ZM18.0451 3.06107L18.6518 2.62023L18.0451 3.06107ZM3.06107 1.95491L3.50191 2.56168L3.06107 1.95491ZM1.95491 3.06107L2.56168 3.50191L1.95491 3.06107ZM13 1.02893L13.0257 0.279368L13 1.02893ZM18.9711 7L19.7206 6.97432L18.9711 7ZM6 13.25C5.58579 13.25 5.25 13.5858 5.25 14C5.25 14.4142 5.58579 14.75 6 14.75V13.25ZM9 14.75C9.41421 14.75 9.75 14.4142 9.75 14C9.75 13.5858 9.41421 13.25 9 13.25V14.75ZM6 9.25C5.58579 9.25 5.25 9.58579 5.25 10C5.25 10.4142 5.58579 10.75 6 10.75V9.25ZM14 10.75C14.4142 10.75 14.75 10.4142 14.75 10C14.75 9.58579 14.4142 9.25 14 9.25V10.75ZM6 5.25C5.58579 5.25 5.25 5.58579 5.25 6C5.25 6.41421 5.58579 6.75 6 6.75V5.25ZM9 6.75C9.41421 6.75 9.75 6.41421 9.75 6C9.75 5.58579 9.41421 5.25 9 5.25V6.75ZM17.3352 6.19768C15.5166 5.90965 14.0904 4.48339 13.8023 2.66485L12.3208 2.8995C12.7105 5.35988 14.6401 7.28952 17.1005 7.67921L17.3352 6.19768ZM10 18.25C8.10843 18.25 6.74999 18.249 5.69804 18.135C4.66013 18.0225 4.00992 17.8074 3.50191 17.4383L2.62023 18.6518C3.42656 19.2377 4.37094 19.5 5.53648 19.6263C6.68798 19.751 8.14184 19.75 10 19.75V18.25ZM0.25 10C0.25 11.8582 0.248971 13.312 0.373728 14.4635C0.500006 15.6291 0.762324 16.5734 1.34815 17.3798L2.56168 16.4981C2.19259 15.9901 1.97745 15.3399 1.865 14.302C1.75103 13.25 1.75 11.8916 1.75 10H0.25ZM3.50191 17.4383C3.14111 17.1762 2.82382 16.8589 2.56168 16.4981L1.34815 17.3798C1.70281 17.8679 2.13209 18.2972 2.62023 18.6518L3.50191 17.4383ZM18.25 10C18.25 11.8916 18.249 13.25 18.135 14.302C18.0225 15.3399 17.8074 15.9901 17.4383 16.4981L18.6518 17.3798C19.2377 16.5734 19.5 15.6291 19.6263 14.4635C19.751 13.312 19.75 11.8582 19.75 10H18.25ZM10 19.75C11.8582 19.75 13.312 19.751 14.4635 19.6263C15.6291 19.5 16.5734 19.2377 17.3798 18.6518L16.4981 17.4383C15.9901 17.8074 15.3399 18.0225 14.302 18.135C13.25 18.249 11.8916 18.25 10 18.25V19.75ZM17.4383 16.4981C17.1762 16.8589 16.8589 17.1762 16.4981 17.4383L17.3798 18.6518C17.8679 18.2972 18.2972 17.8679 18.6518 17.3798L17.4383 16.4981ZM16.4981 2.56168C16.8589 2.82382 17.1762 3.14111 17.4383 3.50191L18.6518 2.62023C18.2972 2.13209 17.8679 1.70281 17.3798 1.34815L16.4981 2.56168ZM10 0.25C8.14184 0.25 6.68798 0.248971 5.53648 0.373728C4.37094 0.500006 3.42656 0.762324 2.62023 1.34815L3.50191 2.56168C4.00992 2.19259 4.66013 1.97745 5.69804 1.865C6.74999 1.75103 8.10843 1.75 10 1.75V0.25ZM1.75 10C1.75 8.10843 1.75103 6.74999 1.865 5.69804C1.97745 4.66013 2.19259 4.00992 2.56168 3.50191L1.34815 2.62023C0.762324 3.42656 0.500006 4.37094 0.373728 5.53648C0.248971 6.68798 0.25 8.14184 0.25 10H1.75ZM2.62023 1.34815C2.13209 1.70281 1.70281 2.13209 1.34815 2.62023L2.56168 3.50191C2.82382 3.14111 3.14111 2.82382 3.50191 2.56168L2.62023 1.34815ZM10 1.75C11.1731 1.75 12.1456 1.75009 12.9743 1.77849L13.0257 0.279368C12.1658 0.249906 11.1648 0.25 10 0.25V1.75ZM12.9743 1.77849C14.8292 1.84204 15.7925 2.04907 16.4981 2.56168L17.3798 1.34815C16.2761 0.546296 14.8991 0.343555 13.0257 0.279368L12.9743 1.77849ZM12.25 1.02893C12.25 1.91121 12.2484 2.44215 12.3208 2.8995L13.8023 2.66485C13.7529 2.35298 13.75 1.96617 13.75 1.02892L12.25 1.02893ZM19.75 10C19.75 8.83522 19.7501 7.83424 19.7206 6.97432L18.2215 7.02568C18.2499 7.85445 18.25 8.82692 18.25 10H19.75ZM19.7206 6.97432C19.6564 5.10087 19.4537 3.7239 18.6518 2.62023L17.4383 3.50191C17.9509 4.20746 18.158 5.17075 18.2215 7.02568L19.7206 6.97432ZM18.9711 6.25C18.0338 6.24999 17.647 6.24707 17.3352 6.19768L17.1005 7.67921C17.5579 7.75165 18.0888 7.74999 18.9711 7.75L18.9711 6.25ZM6 14.75H9V13.25H6V14.75ZM6 10.75H14V9.25H6V10.75ZM6 6.75H9V5.25H6V6.75Z" fill="#2D264B"/>
</g>
</svg>
