<svg width="32" height="32" viewBox="0 0 32 32" fill="none" xmlns="http://www.w3.org/2000/svg">
<g id="solar:password-linear">
<g id="Group">
<path id="Vector" d="M2.66663 15.9999C2.66663 10.9719 2.66663 8.45725 4.22929 6.89592C5.79063 5.33325 8.30529 5.33325 13.3333 5.33325H18.6666C23.6946 5.33325 26.2093 5.33325 27.7706 6.89592C29.3333 8.45725 29.3333 10.9719 29.3333 15.9999C29.3333 21.0279 29.3333 23.5426 27.7706 25.1039C26.2093 26.6666 23.6946 26.6666 18.6666 26.6666H13.3333C8.30529 26.6666 5.79063 26.6666 4.22929 25.1039C2.66663 23.5426 2.66663 21.0279 2.66663 15.9999Z" stroke="#3A0CA3" stroke-width="1.5"/>
<path id="Vector_2" d="M16 13.3333V18.6666M13.6906 14.6666L18.3093 17.3333M18.3093 14.6666L13.6906 17.3333M8.97729 13.3333V18.6666M6.66663 14.6666L11.2853 17.3333M11.2853 14.6666L6.66663 17.3333M23.024 13.3333V18.6666M20.7146 14.6666L25.3333 17.3333M25.3333 14.6666L20.7133 17.3333" stroke="#3A0CA3" stroke-width="1.5" stroke-linecap="round"/>
</g>
</g>
</svg>
